<svg width="26" height="26" viewBox="0 0 26 26" fill="none" xmlns="http://www.w3.org/2000/svg">
<path d="M21.74 18.0592C21.6983 17.8012 21.5365 17.5807 21.2943 17.4497L17.7105 15.3382L17.681 15.3217C17.5308 15.2465 17.3648 15.208 17.1968 15.2092C16.8965 15.2092 16.6098 15.323 16.4108 15.5225L15.353 16.5807C15.3078 16.6237 15.1603 16.686 15.1155 16.6882C15.1033 16.6872 13.8848 16.5995 11.6415 14.356C9.40229 12.1172 9.30729 10.895 9.30654 10.895C9.30779 10.8325 9.36929 10.6855 9.41304 10.64L10.315 9.73825C10.6328 9.41975 10.728 8.89175 10.5395 8.48275L8.54754 4.7345C8.40279 4.4365 8.12154 4.2525 7.80954 4.2525C7.58879 4.2525 7.37579 4.344 7.20929 4.51025L4.75054 6.9635C4.51479 7.198 4.31179 7.608 4.26754 7.938C4.24604 8.09575 3.80979 11.8612 8.97229 17.0245C13.355 21.4067 16.7725 21.7472 17.7163 21.7472C17.8312 21.7487 17.9461 21.7428 18.0603 21.7295C18.3893 21.6855 18.7988 21.483 19.033 21.2482L21.4898 18.7917C21.6903 18.5902 21.7818 18.324 21.74 18.0592Z" fill="white"/>
</svg>
